<svg width="472" height="188" viewBox="0 0 472 188" fill="none" xmlns="http://www.w3.org/2000/svg">
<rect width="472" height="188" fill="white"/>
<rect width="467" height="188" transform="translate(2)" fill="white"/>
<path d="M472 188H3V0H472V188Z" fill="white"/>
<path d="M198.121 47.7231L217.489 35.4763C222.047 32.5949 223.608 26.2115 220.977 21.2198C218.345 16.2281 212.517 14.5168 207.959 17.3999L174.493 38.5604L198.121 47.7231Z" fill="#EA4335"/>
<path d="M212.715 79.1992C216.009 79.1992 219.212 77.3269 220.977 73.979C223.608 68.9873 222.047 62.6039 217.489 59.7217L184.022 38.5611C179.465 35.6773 173.636 37.3902 171.004 42.3819C168.373 47.3736 169.935 53.7569 174.493 56.6384L207.96 77.7989C209.46 78.7484 211.099 79.1992 212.715 79.1992Z" fill="#4285F4"/>
<path d="M246.005 79.1992C247.622 79.1992 249.261 78.7484 250.761 77.7989L284.227 56.6384L260.9 47.2856L241.232 59.7217C236.674 62.6039 235.112 68.9873 237.744 73.979C239.508 77.3269 242.712 79.1992 246.005 79.1992Z" fill="#FBBC04"/>
<path d="M279.453 58.0386C282.747 58.0386 285.95 56.1671 287.715 52.8183C290.347 47.8266 288.785 41.4441 284.227 38.561L250.761 17.3997C246.203 14.5182 240.375 16.2279 237.743 21.2204C235.112 26.2121 236.674 32.5947 241.232 35.4769L274.698 56.6383C276.198 57.587 277.837 58.0386 279.453 58.0386Z" fill="#0F9D58"/>
<path d="M41.5376 122.73C39.9859 121.757 38.7625 120.415 37.8633 118.706C36.9662 116.998 36.5166 115.11 36.5166 113.044C36.5166 110.977 36.9662 109.089 37.8633 107.38C38.7625 105.672 39.9859 104.33 41.5376 103.356C43.0894 102.383 44.7803 101.896 46.6131 101.896C48.0459 101.896 49.3933 102.175 50.6554 102.731C51.9167 103.287 52.9543 104.071 53.7711 105.085L52.111 106.903C51.4943 106.068 50.7005 105.428 49.7303 104.981C48.7587 104.534 47.7196 104.309 46.6131 104.309C45.2536 104.309 43.9771 104.672 42.7897 105.398C41.6014 106.123 40.6484 107.147 39.9321 108.468C39.2157 109.79 38.8572 111.314 38.8572 113.044C38.8572 114.772 39.2157 116.298 39.9321 117.618C40.6484 118.941 41.6014 119.963 42.7897 120.688C43.9771 121.415 45.2536 121.776 46.6131 121.776C47.9204 121.776 49.0125 121.553 49.8931 121.106C50.773 120.659 51.5388 120.068 52.1928 119.332C52.6639 118.777 53.0454 118.101 53.3365 117.306C53.6255 116.511 53.799 115.647 53.8528 114.713H46.6676V112.357H56.0299C56.121 112.914 56.1661 113.431 56.1661 113.908C56.1661 115.219 55.9754 116.496 55.5953 117.738C55.2131 118.98 54.6051 120.068 53.7711 121.001C51.9382 123.128 49.5525 124.19 46.6131 124.19C44.7803 124.19 43.0894 123.704 41.5376 122.73Z" fill="#676C72"/>
<path d="M67.1062 121.211C67.8147 120.755 68.3812 120.104 68.8079 119.259C69.2338 118.415 69.4468 117.436 69.4468 116.323C69.4468 115.21 69.2338 114.232 68.8079 113.387C68.3812 112.543 67.8147 111.892 67.1062 111.435C66.3992 110.978 65.6369 110.749 64.8202 110.749C64.0221 110.749 63.2698 110.978 62.5614 111.435C61.8543 111.892 61.2864 112.543 60.8612 113.387C60.4345 114.232 60.2208 115.21 60.2208 116.323C60.2208 117.436 60.4345 118.415 60.8612 119.259C61.2864 120.104 61.8543 120.755 62.5614 121.211C63.2698 121.668 64.0221 121.897 64.8202 121.897C65.6369 121.897 66.3992 121.668 67.1062 121.211ZM61.2556 123.164C60.2022 122.478 59.3825 121.535 58.7924 120.331C58.2022 119.131 57.9082 117.793 57.9082 116.323C57.9082 114.852 58.2022 113.517 58.7924 112.314C59.3825 111.111 60.2022 110.167 61.2556 109.482C62.3075 108.797 63.4957 108.454 64.8202 108.454C66.1446 108.454 67.3386 108.797 68.3999 109.482C69.4611 110.167 70.2858 111.111 70.876 112.314C71.4661 113.517 71.7608 114.852 71.7608 116.323C71.7608 117.793 71.4661 119.131 70.876 120.331C70.2858 121.535 69.4611 122.478 68.3999 123.164C67.3386 123.849 66.1446 124.191 64.8202 124.191C63.4957 124.191 62.3075 123.849 61.2556 123.164Z" fill="#676C72"/>
<path d="M82.5376 121.211C83.2461 120.755 83.8119 120.104 84.2393 119.259C84.6645 118.415 84.8782 117.436 84.8782 116.323C84.8782 115.21 84.6645 114.232 84.2393 113.387C83.8119 112.543 83.2461 111.892 82.5376 111.435C81.8306 110.978 81.0676 110.749 80.2516 110.749C79.4527 110.749 78.7005 110.978 77.9928 111.435C77.2857 111.892 76.7178 112.543 76.2925 113.387C75.8652 114.232 75.6522 115.21 75.6522 116.323C75.6522 117.436 75.8652 118.415 76.2925 119.259C76.7178 120.104 77.2857 120.755 77.9928 121.211C78.7005 121.668 79.4527 121.897 80.2516 121.897C81.0676 121.897 81.8306 121.668 82.5376 121.211ZM76.6869 123.164C75.6335 122.478 74.8132 121.535 74.2238 120.331C73.6336 119.131 73.3389 117.793 73.3389 116.323C73.3389 114.852 73.6336 113.517 74.2238 112.314C74.8132 111.111 75.6335 110.167 76.6869 109.482C77.7389 108.797 78.9271 108.454 80.2516 108.454C81.5753 108.454 82.7693 108.797 83.8305 109.482C84.8918 110.167 85.7172 111.111 86.3074 112.314C86.8968 113.517 87.1922 114.852 87.1922 116.323C87.1922 117.793 86.8968 119.131 86.3074 120.331C85.7172 121.535 84.8918 122.478 83.8305 123.164C82.7693 123.849 81.5753 124.191 80.2516 124.191C78.9271 124.191 77.7389 123.849 76.6869 123.164Z" fill="#676C72"/>
<path d="M97.7242 121.222C98.3954 120.774 98.9354 120.13 99.3434 119.291C99.7522 118.451 99.9551 117.463 99.9551 116.323C99.9551 115.185 99.7522 114.19 99.3434 113.341C98.9354 112.492 98.3954 111.848 97.7242 111.408C97.0523 110.969 96.318 110.749 95.5199 110.749C94.7218 110.749 93.9868 110.974 93.3156 111.423C92.6437 111.873 92.1045 112.518 91.6957 113.357C91.287 114.196 91.0833 115.185 91.0833 116.323C91.0833 117.463 91.287 118.451 91.6957 119.291C92.1045 120.13 92.6437 120.774 93.3156 121.222C93.9868 121.672 94.7218 121.897 95.5199 121.897C96.318 121.897 97.0523 121.672 97.7242 121.222ZM91.4648 129.348C90.4301 128.495 89.7316 127.5 89.3688 126.368L91.5193 125.384C91.7918 126.259 92.2758 126.968 92.975 127.515C93.6727 128.061 94.5031 128.335 95.4654 128.335C96.8982 128.335 97.9996 127.88 98.7712 126.968C99.5435 126.058 99.9286 124.784 99.9286 123.149V121.568H99.8189C99.3843 122.324 98.7576 122.951 97.9422 123.447C97.1255 123.943 96.2004 124.192 95.1657 124.192C94.0219 124.192 92.9607 123.853 91.9818 123.175C91.0016 122.498 90.2214 121.56 89.6413 120.362C89.0597 119.165 88.77 117.819 88.77 116.323C88.77 114.827 89.0597 113.482 89.6413 112.284C90.2214 111.088 91.0016 110.15 91.9818 109.472C92.9607 108.793 94.0219 108.455 95.1657 108.455C96.2004 108.455 97.1255 108.702 97.9422 109.198C98.7576 109.696 99.3843 110.322 99.8189 111.078H99.9286V108.931H102.133V123.119C102.133 124.748 101.842 126.13 101.262 127.262C100.681 128.395 99.887 129.238 98.8809 129.796C97.8741 130.352 96.7347 130.63 95.4654 130.63C93.8319 130.63 92.4981 130.203 91.4648 129.348Z" fill="#676C72"/>
<path d="M105.262 102.374H107.575V123.715H105.262V102.374Z" fill="#676C72"/>
<path d="M120.449 114.683C120.412 114.088 120.259 113.492 119.986 112.896C119.714 112.299 119.273 111.792 118.666 111.376C118.058 110.957 117.283 110.749 116.339 110.749C115.323 110.749 114.443 111.107 113.699 111.823C112.956 112.538 112.484 113.492 112.285 114.683H120.449ZM113.06 123.178C112.035 122.504 111.232 121.568 110.651 120.377C110.07 119.184 109.78 117.834 109.78 116.323C109.78 114.893 110.052 113.577 110.597 112.373C111.142 111.172 111.917 110.218 112.923 109.512C113.93 108.807 115.087 108.454 116.393 108.454C117.701 108.454 118.847 108.776 119.837 109.422C120.825 110.069 121.582 110.978 122.109 112.15C122.635 113.323 122.898 114.674 122.898 116.204C122.898 116.482 122.879 116.68 122.844 116.8H112.12C112.158 117.913 112.402 118.853 112.855 119.617C113.309 120.382 113.876 120.953 114.557 121.331C115.238 121.709 115.94 121.897 116.665 121.897C118.372 121.897 119.687 120.983 120.612 119.154L122.654 120.228C122.072 121.419 121.27 122.378 120.245 123.104C119.219 123.829 117.99 124.191 116.557 124.191C115.251 124.191 114.085 123.854 113.06 123.178Z" fill="#676C72"/>
<path d="M137.648 121.301C139.952 121.301 141.776 120.576 143.118 119.125C144.461 117.675 145.133 115.648 145.133 113.044C145.133 110.442 144.461 108.414 143.118 106.964C141.776 105.513 139.952 104.789 137.648 104.789H134.055V121.301H137.648ZM131.742 102.374H137.648C139.644 102.374 141.386 102.826 142.873 103.729C144.361 104.634 145.504 105.891 146.302 107.5C147.101 109.11 147.499 110.958 147.499 113.044C147.499 115.13 147.101 116.979 146.302 118.588C145.504 120.198 144.361 121.455 142.873 122.359C141.386 123.262 139.644 123.715 137.648 123.715H131.742V102.374Z" fill="#676C72"/>
<path d="M160.128 114.683C160.091 114.088 159.937 113.492 159.666 112.896C159.393 112.299 158.953 111.792 158.346 111.376C157.738 110.957 156.961 110.749 156.019 110.749C155.003 110.749 154.122 111.107 153.378 111.823C152.634 112.538 152.163 113.492 151.963 114.683H160.128ZM152.739 123.178C151.714 122.504 150.911 121.568 150.331 120.377C149.749 119.184 149.46 117.834 149.46 116.323C149.46 114.893 149.732 113.577 150.277 112.373C150.821 111.172 151.596 110.218 152.603 109.512C153.61 108.807 154.766 108.454 156.073 108.454C157.379 108.454 158.527 108.776 159.516 109.422C160.504 110.069 161.262 110.978 161.788 112.15C162.314 113.323 162.578 114.674 162.578 116.204C162.578 116.482 162.56 116.68 162.522 116.8H151.801C151.836 117.913 152.082 118.853 152.536 119.617C152.989 120.382 153.556 120.953 154.236 121.331C154.916 121.709 155.62 121.897 156.345 121.897C158.051 121.897 159.366 120.983 160.292 119.154L162.332 120.228C161.752 121.419 160.949 122.378 159.924 123.104C158.898 123.829 157.67 124.191 156.236 124.191C154.93 124.191 153.764 123.854 152.739 123.178Z" fill="#676C72"/>
<path d="M163.121 108.931H165.626L169.762 120.735H169.817L174.007 108.931H176.457L170.932 123.715H168.591L163.121 108.931Z" fill="#676C72"/>
<path d="M188.078 114.683C188.041 114.088 187.887 113.492 187.616 112.896C187.343 112.299 186.903 111.792 186.295 111.376C185.687 110.957 184.912 110.749 183.968 110.749C182.952 110.749 182.072 111.107 181.328 111.823C180.585 112.538 180.113 113.492 179.913 114.683H188.078ZM180.689 123.178C179.664 122.504 178.861 121.568 178.28 120.377C177.7 119.184 177.409 117.834 177.409 116.323C177.409 114.893 177.681 113.577 178.225 112.373C178.77 111.172 179.546 110.218 180.552 109.512C181.559 108.807 182.717 108.454 184.022 108.454C185.33 108.454 186.476 108.776 187.466 109.422C188.454 110.069 189.211 110.978 189.738 112.15C190.264 113.323 190.527 114.674 190.527 116.204C190.527 116.482 190.509 116.68 190.473 116.8H179.749C179.787 117.913 180.031 118.853 180.484 119.617C180.937 120.382 181.505 120.953 182.186 121.331C182.866 121.709 183.568 121.897 184.295 121.897C186.001 121.897 187.316 120.983 188.241 119.154L190.283 120.228C189.701 121.419 188.899 122.378 187.874 123.104C186.848 123.829 185.619 124.191 184.186 124.191C182.88 124.191 181.714 123.854 180.689 123.178Z" fill="#676C72"/>
<path d="M192.867 102.374H195.181V123.715H192.867V102.374Z" fill="#676C72"/>
<path d="M206.583 121.211C207.292 120.755 207.858 120.104 208.285 119.259C208.71 118.415 208.924 117.436 208.924 116.323C208.924 115.21 208.71 114.232 208.285 113.387C207.858 112.543 207.292 111.892 206.583 111.435C205.876 110.978 205.114 110.749 204.297 110.749C203.499 110.749 202.747 110.978 202.039 111.435C201.332 111.892 200.764 112.543 200.338 113.387C199.911 114.232 199.698 115.21 199.698 116.323C199.698 117.436 199.911 118.415 200.338 119.259C200.764 120.104 201.332 120.755 202.039 121.211C202.747 121.668 203.499 121.897 204.297 121.897C205.114 121.897 205.876 121.668 206.583 121.211ZM200.733 123.164C199.679 122.478 198.86 121.535 198.27 120.331C197.679 119.131 197.385 117.793 197.385 116.323C197.385 114.852 197.679 113.517 198.27 112.314C198.86 111.111 199.679 110.167 200.733 109.482C201.785 108.797 202.973 108.454 204.297 108.454C205.622 108.454 206.815 108.797 207.876 109.482C208.938 110.167 209.763 111.111 210.353 112.314C210.943 113.517 211.238 114.852 211.238 116.323C211.238 117.793 210.943 119.131 210.353 120.331C209.763 121.535 208.938 122.478 207.876 123.164C206.815 123.849 205.622 124.191 204.297 124.191C202.973 124.191 201.785 123.849 200.733 123.164Z" fill="#676C72"/>
<path d="M222.22 121.211C222.9 120.755 223.444 120.104 223.852 119.259C224.261 118.415 224.465 117.436 224.465 116.323C224.465 115.21 224.261 114.232 223.852 113.387C223.444 112.543 222.9 111.892 222.22 111.435C221.54 110.978 220.8 110.749 220.002 110.749C219.203 110.749 218.464 110.972 217.783 111.42C217.103 111.867 216.558 112.512 216.15 113.357C215.743 114.202 215.539 115.19 215.539 116.323C215.539 117.436 215.743 118.42 216.15 119.274C216.558 120.128 217.103 120.779 217.783 121.226C218.464 121.673 219.203 121.897 220.002 121.897C220.8 121.897 221.54 121.668 222.22 121.211ZM213.334 108.931H215.539V111.106H215.647C216.082 110.352 216.709 109.72 217.525 109.214C218.342 108.707 219.284 108.454 220.356 108.454C221.517 108.454 222.587 108.797 223.566 109.482C224.547 110.167 225.326 111.106 225.907 112.299C226.488 113.492 226.778 114.832 226.778 116.323C226.778 117.813 226.488 119.154 225.907 120.346C225.326 121.539 224.547 122.478 223.566 123.164C222.587 123.849 221.517 124.191 220.356 124.191C219.284 124.191 218.337 123.938 217.512 123.432C216.686 122.925 216.065 122.284 215.647 121.508H215.539L215.647 123.566V130.153H213.334V108.931Z" fill="#676C72"/>
<path d="M239.57 114.683C239.533 114.088 239.38 113.492 239.107 112.896C238.835 112.299 238.394 111.792 237.786 111.376C237.179 110.957 236.403 110.749 235.46 110.749C234.443 110.749 233.563 111.107 232.82 111.823C232.076 112.538 231.604 113.492 231.405 114.683H239.57ZM232.18 123.178C231.156 122.504 230.353 121.568 229.771 120.377C229.191 119.184 228.901 117.834 228.901 116.323C228.901 114.893 229.173 113.577 229.717 112.373C230.262 111.172 231.037 110.218 232.044 109.512C233.051 108.807 234.208 108.454 235.514 108.454C236.821 108.454 237.968 108.776 238.957 109.422C239.945 110.069 240.703 110.978 241.23 112.15C241.755 113.323 242.019 114.674 242.019 116.204C242.019 116.482 242.001 116.68 241.965 116.8H231.241C231.278 117.913 231.523 118.853 231.976 119.617C232.429 120.382 232.997 120.953 233.677 121.331C234.358 121.709 235.061 121.897 235.786 121.897C237.492 121.897 238.807 120.983 239.732 119.154L241.774 120.228C241.193 121.419 240.39 122.378 239.365 123.104C238.34 123.829 237.11 124.191 235.677 124.191C234.372 124.191 233.206 123.854 232.18 123.178Z" fill="#676C72"/>
<path d="M244.358 108.931H246.562V111.345H246.672C246.926 110.531 247.447 109.846 248.236 109.288C249.026 108.732 249.811 108.455 250.591 108.455C251.154 108.455 251.679 108.553 252.17 108.753V111.464C251.679 111.167 251.044 111.018 250.264 111.018C249.629 111.018 249.034 111.222 248.482 111.63C247.928 112.039 247.489 112.581 247.162 113.258C246.835 113.935 246.672 114.673 246.672 115.469V123.715H244.358V108.931Z" fill="#676C72"/>
<path d="M262.307 123.522C261.391 123.074 260.584 122.419 259.885 121.555C259.187 120.689 258.683 119.642 258.375 118.41L260.579 117.426C260.887 118.698 261.459 119.741 262.293 120.556C263.129 121.37 264.099 121.777 265.206 121.777C266.349 121.777 267.31 121.445 268.09 120.779C268.87 120.114 269.261 119.205 269.261 118.051C269.261 117.059 268.929 116.239 268.267 115.593C267.606 114.947 266.521 114.346 265.015 113.79L263.791 113.312C262.411 112.777 261.287 112.071 260.415 111.197C259.544 110.322 259.11 109.111 259.11 107.56C259.11 106.547 259.363 105.608 259.872 104.743C260.379 103.879 261.082 103.189 261.981 102.672C262.879 102.156 263.89 101.896 265.015 101.896C266.141 101.896 267.124 102.125 267.968 102.583C268.812 103.04 269.482 103.596 269.982 104.252C270.481 104.908 270.82 105.553 271.002 106.189L268.853 107.203C268.653 106.448 268.235 105.776 267.601 105.19C266.965 104.604 266.122 104.311 265.07 104.311C264.072 104.311 263.218 104.619 262.511 105.236C261.804 105.852 261.45 106.627 261.45 107.56C261.45 108.395 261.749 109.075 262.348 109.602C262.947 110.129 263.854 110.62 265.07 111.077L266.321 111.554C267.972 112.21 269.266 113.03 270.2 114.014C271.134 114.997 271.601 116.334 271.601 118.022C271.601 119.393 271.279 120.545 270.635 121.48C269.991 122.414 269.179 123.099 268.199 123.536C267.22 123.973 266.203 124.192 265.15 124.192C264.171 124.192 263.223 123.969 262.307 123.522Z" fill="#676C72"/>
<path d="M277.221 123.888C276.758 123.686 276.364 123.413 276.037 123.068C275.674 122.684 275.406 122.233 275.234 121.717C275.061 121.2 274.976 120.589 274.976 119.88V111.226H272.581V108.931H274.976V104.519H277.262V108.931H280.582V111.226H277.262V119.275C277.262 120.129 277.416 120.76 277.725 121.167C278.033 121.613 278.505 121.837 279.14 121.837C279.702 121.837 280.192 121.698 280.61 121.419V123.863C280.319 123.983 280.042 124.068 279.779 124.116C279.517 124.167 279.167 124.191 278.731 124.191C278.187 124.191 277.684 124.09 277.221 123.888Z" fill="#676C72"/>
<path d="M284.188 122.612C283.326 121.56 282.895 120.099 282.895 118.231V108.931H285.208V117.814C285.208 120.536 286.324 121.897 288.555 121.897C289.3 121.897 289.966 121.668 290.556 121.211C291.145 120.755 291.599 120.158 291.917 119.423C292.234 118.688 292.393 117.913 292.393 117.097V108.931H294.68V123.715H292.502V121.509H292.393C291.994 122.265 291.391 122.9 290.583 123.416C289.776 123.934 288.909 124.191 287.984 124.191C286.315 124.191 285.05 123.665 284.188 122.612Z" fill="#676C72"/>
<path d="M305.906 121.226C306.586 120.779 307.13 120.128 307.538 119.274C307.947 118.42 308.151 117.436 308.151 116.323C308.151 115.19 307.947 114.202 307.538 113.357C307.13 112.512 306.586 111.867 305.906 111.42C305.225 110.972 304.486 110.749 303.688 110.749C302.889 110.749 302.15 110.978 301.469 111.435C300.789 111.892 300.244 112.543 299.837 113.387C299.428 114.232 299.225 115.21 299.225 116.323C299.225 117.436 299.428 118.415 299.837 119.259C300.244 120.104 300.789 120.755 301.469 121.211C302.15 121.668 302.889 121.897 303.688 121.897C304.486 121.897 305.225 121.674 305.906 121.226ZM300.122 123.178C299.142 122.503 298.363 121.564 297.781 120.362C297.201 119.159 296.911 117.814 296.911 116.323C296.911 114.832 297.201 113.487 297.781 112.284C298.363 111.082 299.142 110.144 300.122 109.468C301.103 108.791 302.173 108.454 303.334 108.454C304.386 108.454 305.329 108.707 306.164 109.214C306.998 109.72 307.625 110.352 308.042 111.107H308.151L308.042 109.08V102.374H310.329V123.715H308.151V121.509H308.042C307.625 122.285 306.998 122.925 306.164 123.432C305.329 123.939 304.386 124.191 303.334 124.191C302.173 124.191 301.103 123.854 300.122 123.178Z" fill="#676C72"/>
<path d="M323.229 114.683C323.192 114.088 323.038 113.492 322.767 112.896C322.494 112.299 322.054 111.792 321.446 111.376C320.838 110.957 320.062 110.749 319.119 110.749C318.103 110.749 317.223 111.107 316.479 111.823C315.736 112.538 315.264 113.492 315.064 114.683H323.229ZM315.84 123.178C314.815 122.504 314.012 121.568 313.431 120.377C312.851 119.184 312.56 117.834 312.56 116.323C312.56 114.893 312.832 113.577 313.376 112.373C313.921 111.172 314.696 110.218 315.703 109.512C316.71 108.807 317.867 108.454 319.173 108.454C320.48 108.454 321.627 108.776 322.617 109.422C323.605 110.069 324.362 110.978 324.889 112.15C325.415 113.323 325.678 114.674 325.678 116.204C325.678 116.482 325.659 116.68 325.623 116.8H314.9C314.937 117.913 315.182 118.853 315.635 119.617C316.088 120.382 316.656 120.953 317.337 121.331C318.017 121.709 318.719 121.897 319.446 121.897C321.152 121.897 322.467 120.983 323.392 119.154L325.433 120.228C324.852 121.419 324.049 122.378 323.025 123.104C321.999 123.829 320.769 124.191 319.337 124.191C318.031 124.191 316.865 123.854 315.84 123.178Z" fill="#676C72"/>
<path d="M328.018 108.931H330.222V111.137H330.332C330.712 110.382 331.311 109.746 332.127 109.229C332.945 108.713 333.815 108.455 334.74 108.455C336.391 108.455 337.647 108.981 338.509 110.034C339.371 111.088 339.802 112.528 339.802 114.356V123.715H337.516V114.743C337.516 112.08 336.382 110.749 334.114 110.749C333.389 110.749 332.735 110.978 332.155 111.435C331.574 111.893 331.125 112.489 330.808 113.222C330.489 113.958 330.332 114.734 330.332 115.548V123.715H328.018V108.931Z" fill="#676C72"/>
<path d="M345.83 123.888C345.368 123.686 344.973 123.413 344.647 123.068C344.284 122.684 344.016 122.233 343.844 121.717C343.671 121.2 343.585 120.589 343.585 119.88V111.226H341.189V108.931H343.585V104.519H345.871V108.931H349.191V111.226H345.871V119.275C345.871 120.129 346.025 120.76 346.334 121.167C346.643 121.613 347.113 121.837 347.749 121.837C348.31 121.837 348.801 121.698 349.219 121.419V123.863C348.927 123.983 348.651 124.068 348.388 124.116C348.125 124.167 347.777 124.191 347.341 124.191C346.796 124.191 346.293 124.09 345.83 123.888Z" fill="#676C72"/>
<path d="M361.574 122.731C360.032 121.758 358.82 120.416 357.941 118.706C357.061 116.999 356.621 115.111 356.621 113.045C356.621 110.978 357.061 109.09 357.941 107.381C358.82 105.673 360.032 104.331 361.574 103.357C363.115 102.384 364.822 101.897 366.69 101.897C368.16 101.897 369.498 102.199 370.705 102.806C371.912 103.412 372.949 104.272 373.82 105.385L372.188 107.143C371.463 106.169 370.65 105.454 369.752 104.997C368.854 104.539 367.833 104.31 366.69 104.31C365.294 104.31 364.005 104.673 362.826 105.399C361.646 106.124 360.707 107.148 360.009 108.469C359.309 109.791 358.961 111.315 358.961 113.045C358.961 114.773 359.309 116.299 360.009 117.619C360.707 118.942 361.646 119.964 362.826 120.689C364.005 121.416 365.294 121.777 366.69 121.777C369.067 121.777 371.08 120.715 372.733 118.588L374.393 120.377C373.503 121.549 372.396 122.478 371.072 123.164C369.747 123.849 368.287 124.191 366.69 124.191C364.822 124.191 363.115 123.704 361.574 122.731Z" fill="#676C72"/>
<path d="M376.651 102.374H378.964V123.715H376.651V102.374Z" fill="#676C72"/>
<path d="M383.251 122.612C382.389 121.56 381.958 120.099 381.958 118.231V108.931H384.271V117.814C384.271 120.536 385.387 121.897 387.619 121.897C388.363 121.897 389.03 121.668 389.619 121.211C390.209 120.755 390.662 120.158 390.98 119.423C391.298 118.688 391.456 117.913 391.456 117.097V108.931H393.742V123.715H391.565V121.509H391.456C391.057 122.265 390.453 122.9 389.647 123.416C388.838 123.934 387.973 124.191 387.047 124.191C385.378 124.191 384.113 123.665 383.251 122.612Z" fill="#676C72"/>
<path d="M405.758 121.211C406.438 120.755 406.982 120.104 407.391 119.259C407.799 118.415 408.002 117.436 408.002 116.323C408.002 115.21 407.799 114.232 407.391 113.387C406.982 112.543 406.438 111.892 405.758 111.435C405.077 110.978 404.338 110.749 403.539 110.749C402.741 110.749 402.002 110.972 401.321 111.42C400.641 111.867 400.097 112.512 399.689 113.357C399.28 114.202 399.077 115.19 399.077 116.323C399.077 117.436 399.28 118.42 399.689 119.274C400.097 120.128 400.641 120.779 401.321 121.226C402.002 121.674 402.741 121.897 403.539 121.897C404.338 121.897 405.077 121.668 405.758 121.211ZM401.049 123.432C400.224 122.925 399.602 122.285 399.184 121.509H399.077V123.715H396.872V102.374H399.184V109.08L399.077 111.107H399.184C399.621 110.352 400.245 109.72 401.063 109.214C401.879 108.707 402.823 108.454 403.893 108.454C405.054 108.454 406.124 108.797 407.105 109.482C408.085 110.167 408.864 111.107 409.446 112.299C410.026 113.492 410.316 114.832 410.316 116.323C410.316 117.814 410.026 119.154 409.446 120.346C408.864 121.539 408.085 122.478 407.105 123.164C406.124 123.849 405.054 124.191 403.893 124.191C402.823 124.191 401.875 123.939 401.049 123.432Z" fill="#676C72"/>
<path d="M413.637 123C412.638 122.205 411.939 121.221 411.542 120.049L413.582 119.066C413.946 119.999 414.458 120.715 415.12 121.211C415.782 121.709 416.504 121.956 417.284 121.956C418.155 121.956 418.876 121.748 419.447 121.331C420.019 120.913 420.304 120.406 420.304 119.81C420.304 119.234 420.09 118.758 419.665 118.38C419.238 118.002 418.508 117.675 417.474 117.396L415.624 116.889C414.608 116.632 413.741 116.164 413.024 115.488C412.307 114.813 411.95 113.919 411.95 112.806C411.95 111.892 412.19 111.107 412.671 110.451C413.151 109.795 413.791 109.299 414.59 108.962C415.388 108.623 416.258 108.454 417.202 108.454C418.362 108.454 419.421 108.748 420.372 109.334C421.325 109.92 422.001 110.749 422.4 111.823L420.359 112.776C420.069 112.06 419.628 111.535 419.038 111.196C418.449 110.859 417.791 110.69 417.066 110.69C416.359 110.69 415.718 110.879 415.148 111.256C414.575 111.634 414.291 112.12 414.291 112.716C414.291 113.234 414.476 113.641 414.848 113.939C415.219 114.237 415.814 114.505 416.63 114.744L418.644 115.279C419.986 115.657 420.989 116.218 421.651 116.964C422.313 117.709 422.645 118.599 422.645 119.632C422.645 120.486 422.419 121.262 421.965 121.956C421.51 122.653 420.876 123.198 420.06 123.596C419.243 123.993 418.318 124.191 417.284 124.191C415.85 124.191 414.634 123.795 413.637 123Z" fill="#676C72"/>
<path d="M16.0849 137.52H18.9649L27.1249 159H24.3049L22.1749 153.09H12.9049L10.7449 159H7.92488L16.0849 137.52ZM21.2749 150.69L18.4249 142.95L17.5849 140.64H17.4649L16.5949 142.95L13.7749 150.69H21.2749ZM29.4039 144.12H31.8339V146.55H31.9539C32.2339 145.73 32.8039 145.05 33.6639 144.51C34.5439 143.95 35.4139 143.67 36.2739 143.67C36.8939 143.67 37.4739 143.76 38.0139 143.94V146.7C37.4739 146.4 36.7739 146.25 35.9139 146.25C35.2139 146.25 34.5539 146.46 33.9339 146.88C33.3339 147.28 32.8539 147.82 32.4939 148.5C32.1339 149.18 31.9539 149.92 31.9539 150.72V159H29.4039V144.12ZM40.3903 144.12H42.8203V146.34H42.9403C43.3603 145.58 44.0103 144.94 44.8903 144.42C45.7903 143.9 46.7003 143.64 47.6203 143.64C48.7403 143.64 49.7003 143.91 50.5003 144.45C51.3203 144.97 51.9103 145.69 52.2703 146.61C52.8303 145.71 53.5503 144.99 54.4303 144.45C55.3103 143.91 56.3203 143.64 57.4603 143.64C59.2003 143.64 60.5103 144.17 61.3903 145.23C62.2703 146.29 62.7103 147.75 62.7103 149.61V159H60.1603V150C60.1603 148.54 59.8803 147.5 59.3203 146.88C58.7803 146.26 57.9403 145.95 56.8003 145.95C56.0403 145.95 55.3503 146.18 54.7303 146.64C54.1303 147.08 53.6603 147.67 53.3203 148.41C52.9803 149.15 52.8103 149.93 52.8103 150.75V159H50.2903V150C50.2903 148.54 50.0103 147.5 49.4503 146.88C48.8903 146.26 48.0503 145.95 46.9303 145.95C46.1503 145.95 45.4603 146.18 44.8603 146.64C44.2603 147.1 43.7903 147.7 43.4503 148.44C43.1103 149.18 42.9403 149.97 42.9403 150.81V159H40.3903V144.12ZM70.4379 158.04L64.2579 144.12H67.0179L71.6379 155.07H71.6979L76.1679 144.12H78.9279L69.6279 165.48H67.0179L70.4379 158.04ZM88.4784 137.52H91.0284V159H88.4784V137.52ZM95.2633 144.12H97.6933V146.34H97.8133C98.2333 145.58 98.8933 144.94 99.7933 144.42C100.693 143.9 101.653 143.64 102.673 143.64C104.493 143.64 105.873 144.17 106.813 145.23C107.773 146.29 108.253 147.74 108.253 149.58V159H105.733V149.97C105.733 147.29 104.483 145.95 101.983 145.95C101.183 145.95 100.463 146.18 99.8233 146.64C99.1833 147.1 98.6833 147.7 98.3233 148.44C97.9833 149.18 97.8133 149.96 97.8133 150.78V159H95.2633V144.12ZM116.978 159.48C115.398 159.48 114.058 159.08 112.958 158.28C111.858 157.48 111.088 156.49 110.648 155.31L112.898 154.32C113.298 155.26 113.858 155.98 114.578 156.48C115.318 156.98 116.118 157.23 116.978 157.23C117.938 157.23 118.728 157.02 119.348 156.6C119.988 156.18 120.308 155.67 120.308 155.07C120.308 154.49 120.068 154.01 119.588 153.63C119.128 153.25 118.328 152.92 117.188 152.64L115.148 152.13C114.028 151.87 113.068 151.4 112.268 150.72C111.488 150.04 111.098 149.14 111.098 148.02C111.098 147.1 111.358 146.31 111.878 145.65C112.418 144.99 113.128 144.49 114.008 144.15C114.888 143.81 115.848 143.64 116.888 143.64C118.168 143.64 119.328 143.94 120.368 144.54C121.428 145.12 122.178 145.95 122.618 147.03L120.368 147.99C120.048 147.27 119.558 146.74 118.898 146.4C118.258 146.06 117.538 145.89 116.738 145.89C115.958 145.89 115.248 146.08 114.608 146.46C113.988 146.84 113.678 147.33 113.678 147.93C113.678 148.45 113.878 148.86 114.278 149.16C114.698 149.46 115.358 149.73 116.258 149.97L118.478 150.51C119.958 150.89 121.058 151.46 121.778 152.22C122.518 152.96 122.888 153.85 122.888 154.89C122.888 155.75 122.638 156.53 122.138 157.23C121.638 157.93 120.938 158.48 120.038 158.88C119.138 159.28 118.118 159.48 116.978 159.48ZM131.198 159.24C130.598 159.24 130.038 159.14 129.518 158.94C129.018 158.74 128.588 158.47 128.228 158.13C127.828 157.75 127.528 157.31 127.328 156.81C127.148 156.29 127.058 155.68 127.058 154.98V146.43H124.418V144.12H127.058V139.68H129.578V144.12H133.238V146.43H129.578V154.35C129.578 155.19 129.748 155.81 130.088 156.21C130.428 156.65 130.948 156.87 131.648 156.87C132.268 156.87 132.808 156.73 133.268 156.45V158.91C132.948 159.03 132.638 159.11 132.338 159.15C132.058 159.21 131.678 159.24 131.198 159.24ZM137.867 141C137.367 141 136.937 140.82 136.577 140.46C136.217 140.1 136.037 139.67 136.037 139.17C136.037 138.67 136.217 138.24 136.577 137.88C136.937 137.52 137.367 137.34 137.867 137.34C138.367 137.34 138.797 137.52 139.157 137.88C139.517 138.24 139.697 138.67 139.697 139.17C139.697 139.67 139.517 140.1 139.157 140.46C138.817 140.82 138.387 141 137.867 141ZM136.607 144.12H139.127V159H136.607V144.12ZM148.659 159.24C148.059 159.24 147.499 159.14 146.979 158.94C146.479 158.74 146.049 158.47 145.689 158.13C145.289 157.75 144.989 157.31 144.789 156.81C144.609 156.29 144.519 155.68 144.519 154.98V146.43H141.879V144.12H144.519V139.68H147.039V144.12H150.699V146.43H147.039V154.35C147.039 155.19 147.209 155.81 147.549 156.21C147.889 156.65 148.409 156.87 149.109 156.87C149.729 156.87 150.269 156.73 150.729 156.45V158.91C150.409 159.03 150.099 159.11 149.799 159.15C149.519 159.21 149.139 159.24 148.659 159.24ZM159.171 159.48C157.331 159.48 155.931 158.95 154.971 157.89C154.031 156.83 153.561 155.36 153.561 153.48V144.12H156.111V153.06C156.111 155.8 157.341 157.17 159.801 157.17C160.621 157.17 161.351 156.94 161.991 156.48C162.651 156.02 163.151 155.42 163.491 154.68C163.851 153.94 164.031 153.16 164.031 152.34V144.12H166.551V159H164.151V156.78H164.031C163.591 157.54 162.921 158.18 162.021 158.7C161.141 159.22 160.191 159.48 159.171 159.48ZM176.169 159.24C175.569 159.24 175.009 159.14 174.489 158.94C173.989 158.74 173.559 158.47 173.199 158.13C172.799 157.75 172.499 157.31 172.299 156.81C172.119 156.29 172.029 155.68 172.029 154.98V146.43H169.389V144.12H172.029V139.68H174.549V144.12H178.209V146.43H174.549V154.35C174.549 155.19 174.719 155.81 175.059 156.21C175.399 156.65 175.919 156.87 176.619 156.87C177.239 156.87 177.779 156.73 178.239 156.45V158.91C177.919 159.03 177.609 159.11 177.309 159.15C177.029 159.21 176.649 159.24 176.169 159.24ZM187.147 159.48C185.707 159.48 184.417 159.14 183.277 158.46C182.157 157.78 181.277 156.84 180.637 155.64C179.997 154.44 179.677 153.08 179.677 151.56C179.677 150.12 179.977 148.8 180.577 147.6C181.177 146.38 182.027 145.42 183.127 144.72C184.247 144 185.527 143.64 186.967 143.64C188.407 143.64 189.667 143.97 190.747 144.63C191.847 145.27 192.687 146.18 193.267 147.36C193.847 148.54 194.137 149.9 194.137 151.44C194.137 151.72 194.117 151.92 194.077 152.04H182.257C182.297 153.16 182.567 154.11 183.067 154.89C183.567 155.65 184.187 156.22 184.927 156.6C185.687 156.98 186.467 157.17 187.267 157.17C189.147 157.17 190.597 156.25 191.617 154.41L193.867 155.49C193.227 156.69 192.337 157.66 191.197 158.4C190.077 159.12 188.727 159.48 187.147 159.48ZM191.437 149.91C191.397 149.31 191.227 148.71 190.927 148.11C190.627 147.51 190.137 147 189.457 146.58C188.797 146.16 187.947 145.95 186.907 145.95C185.787 145.95 184.817 146.31 183.997 147.03C183.177 147.75 182.657 148.71 182.437 149.91H191.437ZM210.764 159.48C209.304 159.48 207.994 159.14 206.834 158.46C205.674 157.76 204.764 156.81 204.104 155.61C203.464 154.39 203.144 153.04 203.144 151.56C203.144 150.08 203.464 148.74 204.104 147.54C204.764 146.32 205.674 145.37 206.834 144.69C207.994 143.99 209.304 143.64 210.764 143.64C212.224 143.64 213.534 143.99 214.694 144.69C215.874 145.37 216.784 146.32 217.424 147.54C218.084 148.74 218.414 150.08 218.414 151.56C218.414 153.04 218.084 154.39 217.424 155.61C216.784 156.81 215.874 157.76 214.694 158.46C213.534 159.14 212.224 159.48 210.764 159.48ZM210.764 157.17C211.664 157.17 212.504 156.94 213.284 156.48C214.064 156.02 214.684 155.37 215.144 154.53C215.624 153.67 215.864 152.68 215.864 151.56C215.864 150.44 215.624 149.46 215.144 148.62C214.684 147.76 214.064 147.1 213.284 146.64C212.504 146.18 211.664 145.95 210.764 145.95C209.884 145.95 209.054 146.18 208.274 146.64C207.494 147.1 206.864 147.76 206.384 148.62C205.924 149.46 205.694 150.44 205.694 151.56C205.694 152.68 205.924 153.67 206.384 154.53C206.864 155.37 207.494 156.02 208.274 156.48C209.054 156.94 209.884 157.17 210.764 157.17ZM222.599 146.43H219.809V144.12H222.599V142.05C222.599 141.09 222.809 140.25 223.229 139.53C223.669 138.81 224.249 138.26 224.969 137.88C225.709 137.48 226.529 137.28 227.429 137.28C227.929 137.28 228.329 137.31 228.629 137.37C228.949 137.43 229.279 137.52 229.619 137.64V140.13C228.979 139.81 228.279 139.65 227.519 139.65C226.859 139.65 226.299 139.89 225.839 140.37C225.379 140.83 225.149 141.48 225.149 142.32V144.12H228.989V146.43H225.149V159H222.599V146.43ZM242.684 139.95H236.654V137.52H251.234V139.95H245.204V159H242.684V139.95ZM258.104 159.48C256.664 159.48 255.374 159.14 254.234 158.46C253.114 157.78 252.234 156.84 251.594 155.64C250.954 154.44 250.634 153.08 250.634 151.56C250.634 150.12 250.934 148.8 251.534 147.6C252.134 146.38 252.984 145.42 254.084 144.72C255.204 144 256.484 143.64 257.924 143.64C259.364 143.64 260.624 143.97 261.704 144.63C262.804 145.27 263.644 146.18 264.224 147.36C264.804 148.54 265.094 149.9 265.094 151.44C265.094 151.72 265.074 151.92 265.034 152.04H253.214C253.254 153.16 253.524 154.11 254.024 154.89C254.524 155.65 255.144 156.22 255.884 156.6C256.644 156.98 257.424 157.17 258.224 157.17C260.104 157.17 261.554 156.25 262.574 154.41L264.824 155.49C264.184 156.69 263.294 157.66 262.154 158.4C261.034 159.12 259.684 159.48 258.104 159.48ZM262.394 149.91C262.354 149.31 262.184 148.71 261.884 148.11C261.584 147.51 261.094 147 260.414 146.58C259.754 146.16 258.904 145.95 257.864 145.95C256.744 145.95 255.774 146.31 254.954 147.03C254.134 147.75 253.614 148.71 253.394 149.91H262.394ZM274.865 159.48C273.425 159.48 272.125 159.14 270.965 158.46C269.805 157.76 268.895 156.81 268.235 155.61C267.595 154.39 267.275 153.04 267.275 151.56C267.275 150.06 267.595 148.71 268.235 147.51C268.895 146.31 269.805 145.37 270.965 144.69C272.125 143.99 273.425 143.64 274.865 143.64C276.485 143.64 277.845 144.03 278.945 144.81C280.045 145.59 280.845 146.6 281.345 147.84L279.035 148.83C278.235 146.91 276.795 145.95 274.715 145.95C273.875 145.95 273.075 146.19 272.315 146.67C271.575 147.13 270.975 147.79 270.515 148.65C270.055 149.49 269.825 150.46 269.825 151.56C269.825 152.64 270.055 153.61 270.515 154.47C270.975 155.33 271.575 156 272.315 156.48C273.075 156.94 273.875 157.17 274.715 157.17C275.775 157.17 276.685 156.92 277.445 156.42C278.205 155.92 278.775 155.21 279.155 154.29L281.405 155.25C280.905 156.49 280.095 157.51 278.975 158.31C277.855 159.09 276.485 159.48 274.865 159.48ZM284.111 137.52H286.661V144.24L286.541 146.37H286.661C287.081 145.59 287.731 144.94 288.611 144.42C289.511 143.9 290.481 143.64 291.521 143.64C293.381 143.64 294.781 144.18 295.721 145.26C296.661 146.34 297.131 147.78 297.131 149.58V159H294.611V149.97C294.611 148.59 294.271 147.58 293.591 146.94C292.931 146.28 292.041 145.95 290.921 145.95C290.121 145.95 289.391 146.19 288.731 146.67C288.091 147.13 287.581 147.75 287.201 148.53C286.841 149.29 286.661 150.08 286.661 150.9V159H284.111V137.52ZM300.722 144.12H303.152V146.34H303.272C303.692 145.58 304.352 144.94 305.252 144.42C306.152 143.9 307.112 143.64 308.132 143.64C309.952 143.64 311.332 144.17 312.272 145.23C313.232 146.29 313.712 147.74 313.712 149.58V159H311.192V149.97C311.192 147.29 309.942 145.95 307.442 145.95C306.642 145.95 305.922 146.18 305.282 146.64C304.642 147.1 304.142 147.7 303.782 148.44C303.442 149.18 303.272 149.96 303.272 150.78V159H300.722V144.12ZM324.114 159.48C322.654 159.48 321.344 159.14 320.184 158.46C319.024 157.76 318.114 156.81 317.454 155.61C316.814 154.39 316.494 153.04 316.494 151.56C316.494 150.08 316.814 148.74 317.454 147.54C318.114 146.32 319.024 145.37 320.184 144.69C321.344 143.99 322.654 143.64 324.114 143.64C325.574 143.64 326.884 143.99 328.044 144.69C329.224 145.37 330.134 146.32 330.774 147.54C331.434 148.74 331.764 150.08 331.764 151.56C331.764 153.04 331.434 154.39 330.774 155.61C330.134 156.81 329.224 157.76 328.044 158.46C326.884 159.14 325.574 159.48 324.114 159.48ZM324.114 157.17C325.014 157.17 325.854 156.94 326.634 156.48C327.414 156.02 328.034 155.37 328.494 154.53C328.974 153.67 329.214 152.68 329.214 151.56C329.214 150.44 328.974 149.46 328.494 148.62C328.034 147.76 327.414 147.1 326.634 146.64C325.854 146.18 325.014 145.95 324.114 145.95C323.234 145.95 322.404 146.18 321.624 146.64C320.844 147.1 320.214 147.76 319.734 148.62C319.274 149.46 319.044 150.44 319.044 151.56C319.044 152.68 319.274 153.67 319.734 154.53C320.214 155.37 320.844 156.02 321.624 156.48C322.404 156.94 323.234 157.17 324.114 157.17ZM334.502 137.52H337.052V159H334.502V137.52ZM347.405 159.48C345.945 159.48 344.635 159.14 343.475 158.46C342.315 157.76 341.405 156.81 340.745 155.61C340.105 154.39 339.785 153.04 339.785 151.56C339.785 150.08 340.105 148.74 340.745 147.54C341.405 146.32 342.315 145.37 343.475 144.69C344.635 143.99 345.945 143.64 347.405 143.64C348.865 143.64 350.175 143.99 351.335 144.69C352.515 145.37 353.425 146.32 354.065 147.54C354.725 148.74 355.055 150.08 355.055 151.56C355.055 153.04 354.725 154.39 354.065 155.61C353.425 156.81 352.515 157.76 351.335 158.46C350.175 159.14 348.865 159.48 347.405 159.48ZM347.405 157.17C348.305 157.17 349.145 156.94 349.925 156.48C350.705 156.02 351.325 155.37 351.785 154.53C352.265 153.67 352.505 152.68 352.505 151.56C352.505 150.44 352.265 149.46 351.785 148.62C351.325 147.76 350.705 147.1 349.925 146.64C349.145 146.18 348.305 145.95 347.405 145.95C346.525 145.95 345.695 146.18 344.915 146.64C344.135 147.1 343.505 147.76 343.025 148.62C342.565 149.46 342.335 150.44 342.335 151.56C342.335 152.68 342.565 153.67 343.025 154.53C343.505 155.37 344.135 156.02 344.915 156.48C345.695 156.94 346.525 157.17 347.405 157.17ZM364.479 165.96C362.679 165.96 361.209 165.53 360.069 164.67C358.929 163.81 358.159 162.81 357.759 161.67L360.129 160.68C360.429 161.56 360.959 162.27 361.719 162.81C362.499 163.37 363.419 163.65 364.479 163.65C366.059 163.65 367.269 163.18 368.109 162.24C368.969 161.32 369.399 160.03 369.399 158.37V156.78H369.279C368.799 157.54 368.109 158.17 367.209 158.67C366.309 159.17 365.289 159.42 364.149 159.42C362.889 159.42 361.719 159.08 360.639 158.4C359.559 157.72 358.699 156.78 358.059 155.58C357.419 154.38 357.099 153.03 357.099 151.53C357.099 150.03 357.419 148.68 358.059 147.48C358.699 146.28 359.559 145.34 360.639 144.66C361.719 143.98 362.889 143.64 364.149 143.64C365.289 143.64 366.309 143.89 367.209 144.39C368.109 144.89 368.799 145.52 369.279 146.28H369.399V144.12H371.829V158.4C371.829 160.04 371.509 161.43 370.869 162.57C370.229 163.71 369.349 164.56 368.229 165.12C367.129 165.68 365.879 165.96 364.479 165.96ZM364.539 157.11C365.419 157.11 366.229 156.89 366.969 156.45C367.709 155.99 368.299 155.34 368.739 154.5C369.199 153.66 369.429 152.67 369.429 151.53C369.429 150.39 369.199 149.4 368.739 148.56C368.299 147.7 367.709 147.05 366.969 146.61C366.229 146.17 365.419 145.95 364.539 145.95C363.659 145.95 362.849 146.18 362.109 146.64C361.369 147.08 360.769 147.72 360.309 148.56C359.869 149.4 359.649 150.39 359.649 151.53C359.649 152.67 359.869 153.66 360.309 154.5C360.769 155.34 361.369 155.99 362.109 156.45C362.849 156.89 363.659 157.11 364.539 157.11ZM380.106 158.04L373.926 144.12H376.686L381.306 155.07H381.366L385.836 144.12H388.596L379.296 165.48H376.686L380.106 158.04ZM388.194 161.49L389.784 159C389.424 158.94 389.104 158.75 388.824 158.43C388.544 158.11 388.404 157.72 388.404 157.26C388.404 156.74 388.584 156.3 388.944 155.94C389.324 155.56 389.784 155.37 390.324 155.37C390.864 155.37 391.314 155.56 391.674 155.94C392.054 156.3 392.244 156.74 392.244 157.26C392.244 157.6 392.174 157.93 392.034 158.25C391.894 158.55 391.684 158.9 391.404 159.3L389.424 162.3L388.194 161.49ZM403.215 137.52H410.445C411.645 137.52 412.755 137.79 413.775 138.33C414.815 138.87 415.635 139.63 416.235 140.61C416.855 141.57 417.165 142.66 417.165 143.88C417.165 145.1 416.855 146.2 416.235 147.18C415.635 148.14 414.815 148.89 413.775 149.43C412.755 149.97 411.645 150.24 410.445 150.24H405.765V159H403.215V137.52ZM410.535 147.81C411.335 147.81 412.035 147.62 412.635 147.24C413.255 146.86 413.725 146.37 414.045 145.77C414.385 145.17 414.555 144.54 414.555 143.88C414.555 143.22 414.385 142.59 414.045 141.99C413.725 141.39 413.255 140.9 412.635 140.52C412.035 140.14 411.335 139.95 410.535 139.95H405.765V147.81H410.535ZM425.128 159.48C423.288 159.48 421.888 158.95 420.928 157.89C419.988 156.83 419.518 155.36 419.518 153.48V144.12H422.068V153.06C422.068 155.8 423.298 157.17 425.758 157.17C426.578 157.17 427.308 156.94 427.948 156.48C428.608 156.02 429.108 155.42 429.448 154.68C429.808 153.94 429.988 153.16 429.988 152.34V144.12H432.508V159H430.108V156.78H429.988C429.548 157.54 428.878 158.18 427.978 158.7C427.098 159.22 426.148 159.48 425.128 159.48ZM436.25 144.12H438.68V146.34H438.8C439.22 145.58 439.88 144.94 440.78 144.42C441.68 143.9 442.64 143.64 443.66 143.64C445.48 143.64 446.86 144.17 447.8 145.23C448.76 146.29 449.24 147.74 449.24 149.58V159H446.72V149.97C446.72 147.29 445.47 145.95 442.97 145.95C442.17 145.95 441.45 146.18 440.81 146.64C440.17 147.1 439.67 147.7 439.31 148.44C438.97 149.18 438.8 149.96 438.8 150.78V159H436.25V144.12ZM459.491 159.48C458.051 159.48 456.761 159.14 455.621 158.46C454.501 157.78 453.621 156.84 452.981 155.64C452.341 154.44 452.021 153.08 452.021 151.56C452.021 150.12 452.321 148.8 452.921 147.6C453.521 146.38 454.371 145.42 455.471 144.72C456.591 144 457.871 143.64 459.311 143.64C460.751 143.64 462.011 143.97 463.091 144.63C464.191 145.27 465.031 146.18 465.611 147.36C466.191 148.54 466.481 149.9 466.481 151.44C466.481 151.72 466.461 151.92 466.421 152.04H454.601C454.641 153.16 454.911 154.11 455.411 154.89C455.911 155.65 456.531 156.22 457.271 156.6C458.031 156.98 458.811 157.17 459.611 157.17C461.491 157.17 462.941 156.25 463.961 154.41L466.211 155.49C465.571 156.69 464.681 157.66 463.541 158.4C462.421 159.12 461.071 159.48 459.491 159.48ZM463.781 149.91C463.741 149.31 463.571 148.71 463.271 148.11C462.971 147.51 462.481 147 461.801 146.58C461.141 146.16 460.291 145.95 459.251 145.95C458.131 145.95 457.161 146.31 456.341 147.03C455.521 147.75 455.001 148.71 454.781 149.91H463.781Z" fill="#6B6B6B"/>
</svg>
