<svg width="3330" height="645" viewBox="0 0 3330 645" fill="none" xmlns="http://www.w3.org/2000/svg">
<path d="M327.418 472V335.635C327.418 297.398 348.61 272.981 382.701 272.981C395.601 272.981 408.039 276.206 419.096 282.656V253.632C407.579 248.104 394.219 245.34 380.398 245.34C328.8 245.34 298.855 282.195 298.855 334.253V472H327.418ZM566.283 449.426C517.911 449.426 490.73 407.503 490.73 360.052V248.564H462.167V362.355C462.167 426.852 501.326 476.607 566.283 476.607C632.162 476.607 671.782 427.313 671.782 362.816V248.564H643.219V359.591C643.219 407.503 615.117 449.426 566.283 449.426ZM835.896 477.068C852.481 477.068 869.066 471.539 880.583 462.786V435.145C869.527 444.358 854.324 450.347 838.199 450.347C808.715 450.347 789.366 430.998 789.366 397.829V274.363H880.583V248.564H789.366V189.135H760.803V248.564H713.352V274.363H760.803V398.75C760.803 446.201 788.445 477.068 835.896 477.068ZM1017.29 476.146C1061.51 476.146 1099.75 450.808 1099.75 410.267C1099.75 325.5 967.071 362.816 967.071 308.454C967.071 285.42 991.027 272.06 1015.9 272.06C1039.4 272.06 1058.75 278.509 1070.73 301.083L1094.22 287.723C1079.48 261.003 1051.84 245.34 1015.44 245.34C972.599 245.34 938.508 271.599 938.508 308.915C938.508 393.682 1071.19 354.524 1071.19 410.728C1071.19 436.527 1046.31 449.426 1016.36 449.426C989.184 449.426 968.453 440.212 955.093 414.414L931.598 427.313C948.182 460.022 979.51 476.146 1017.29 476.146Z" fill="black"/>
<path d="M327.418 472V474H329.418V472H327.418ZM419.096 282.656L418.088 284.383L421.096 286.138V282.656H419.096ZM419.096 253.632H421.096V252.374L419.961 251.829L419.096 253.632ZM298.855 472H296.855V474H298.855V472ZM329.418 472V335.635H325.418V472H329.418ZM329.418 335.635C329.418 316.873 334.615 301.721 343.778 291.289C352.915 280.886 366.163 274.981 382.701 274.981V270.981C365.148 270.981 350.754 277.285 340.773 288.649C330.817 299.985 325.418 316.16 325.418 335.635H329.418ZM382.701 274.981C395.263 274.981 407.351 278.12 418.088 284.383L420.104 280.928C408.728 274.292 395.939 270.981 382.701 270.981V274.981ZM421.096 282.656V253.632H417.096V282.656H421.096ZM419.961 251.829C408.139 246.154 394.477 243.34 380.398 243.34V247.34C393.96 247.34 407.018 250.053 418.23 255.435L419.961 251.829ZM380.398 243.34C354.091 243.34 333.137 252.752 318.781 268.948C304.451 285.114 296.855 307.852 296.855 334.253H300.855C300.855 308.596 308.233 286.877 321.774 271.601C335.29 256.354 355.107 247.34 380.398 247.34V243.34ZM296.855 334.253V472H300.855V334.253H296.855ZM298.855 474H327.418V470H298.855V474ZM490.73 248.564H492.73V246.564H490.73V248.564ZM462.167 248.564V246.564H460.167V248.564H462.167ZM671.782 248.564H673.782V246.564H671.782V248.564ZM643.219 248.564V246.564H641.219V248.564H643.219ZM566.283 447.426C542.741 447.426 524.423 437.252 511.942 421.301C499.425 405.304 492.73 383.419 492.73 360.052H488.73C488.73 384.136 495.625 406.938 508.792 423.766C521.994 440.639 541.453 451.426 566.283 451.426V447.426ZM492.73 360.052V248.564H488.73V360.052H492.73ZM490.73 246.564H462.167V250.564H490.73V246.564ZM460.167 248.564V362.355H464.167V248.564H460.167ZM460.167 362.355C460.167 394.998 470.078 424.056 488.36 444.983C506.667 465.939 533.255 478.607 566.283 478.607V474.607C534.354 474.607 508.884 462.397 491.372 442.352C473.836 422.277 464.167 394.209 464.167 362.355H460.167ZM566.283 478.607C599.756 478.607 626.688 466.066 645.231 445.227C663.752 424.414 673.782 395.466 673.782 362.816H669.782C669.782 394.663 660.002 422.61 642.243 442.568C624.507 462.5 598.689 474.607 566.283 474.607V478.607ZM673.782 362.816V248.564H669.782V362.816H673.782ZM671.782 246.564H643.219V250.564H671.782V246.564ZM641.219 248.564V359.591H645.219V248.564H641.219ZM641.219 359.591C641.219 383.177 634.299 405.173 621.5 421.229C608.733 437.243 590.066 447.426 566.283 447.426V451.426C591.334 451.426 611.134 440.648 624.627 423.722C638.087 406.839 645.219 383.917 645.219 359.591H641.219ZM880.583 462.786L881.793 464.378L882.583 463.778V462.786H880.583ZM880.583 435.145H882.583V430.875L879.303 433.608L880.583 435.145ZM789.366 274.363V272.363H787.366V274.363H789.366ZM880.583 274.363V276.363H882.583V274.363H880.583ZM880.583 248.564H882.583V246.564H880.583V248.564ZM789.366 248.564H787.366V250.564H789.366V248.564ZM789.366 189.135H791.366V187.135H789.366V189.135ZM760.803 189.135V187.135H758.803V189.135H760.803ZM760.803 248.564V250.564H762.803V248.564H760.803ZM713.352 248.564V246.564H711.352V248.564H713.352ZM713.352 274.363H711.352V276.363H713.352V274.363ZM760.803 274.363H762.803V272.363H760.803V274.363ZM835.896 479.068C852.883 479.068 869.901 473.417 881.793 464.378L879.373 461.194C868.231 469.662 852.079 475.068 835.896 475.068V479.068ZM882.583 462.786V435.145H878.583V462.786H882.583ZM879.303 433.608C868.594 442.532 853.841 448.347 838.199 448.347V452.347C854.806 452.347 870.459 446.185 881.864 436.681L879.303 433.608ZM838.199 448.347C823.907 448.347 812.259 443.669 804.177 435.15C796.085 426.621 791.366 414.028 791.366 397.829H787.366C787.366 414.799 792.322 428.466 801.275 437.903C810.239 447.351 823.008 452.347 838.199 452.347V448.347ZM791.366 397.829V274.363H787.366V397.829H791.366ZM789.366 276.363H880.583V272.363H789.366V276.363ZM882.583 274.363V248.564H878.583V274.363H882.583ZM880.583 246.564H789.366V250.564H880.583V246.564ZM791.366 248.564V189.135H787.366V248.564H791.366ZM789.366 187.135H760.803V191.135H789.366V187.135ZM758.803 189.135V248.564H762.803V189.135H758.803ZM760.803 246.564H713.352V250.564H760.803V246.564ZM711.352 248.564V274.363H715.352V248.564H711.352ZM713.352 276.363H760.803V272.363H713.352V276.363ZM758.803 274.363V398.75H762.803V274.363H758.803ZM758.803 398.75C758.803 422.857 765.829 442.971 779.099 457.074C792.384 471.192 811.721 479.068 835.896 479.068V475.068C812.619 475.068 794.411 467.51 782.012 454.332C769.598 441.139 762.803 422.094 762.803 398.75H758.803ZM1070.73 301.083L1068.96 302.021L1069.92 303.84L1071.72 302.822L1070.73 301.083ZM1094.22 287.723L1095.21 289.462L1096.93 288.486L1095.97 286.757L1094.22 287.723ZM955.093 414.414L956.869 413.494L955.927 411.674L954.13 412.66L955.093 414.414ZM931.598 427.313L930.635 425.56L928.939 426.491L929.814 428.217L931.598 427.313ZM1017.29 478.146C1039.76 478.146 1060.82 471.712 1076.31 460.005C1091.84 448.271 1101.75 431.237 1101.75 410.267H1097.75C1097.75 429.838 1088.55 445.744 1073.9 456.814C1059.21 467.912 1039.04 474.146 1017.29 474.146V478.146ZM1101.75 410.267C1101.75 388.439 1093.16 374.285 1080.21 364.639C1067.42 355.101 1050.47 350.047 1033.88 346.015C1017.11 341.939 1000.83 338.922 988.607 333.545C982.539 330.877 977.663 327.7 974.307 323.679C970.991 319.704 969.071 314.799 969.071 308.454H965.071C965.071 315.7 967.297 321.521 971.236 326.241C975.137 330.916 980.626 334.405 986.997 337.207C999.65 342.772 1016.54 345.916 1032.94 349.902C1049.52 353.932 1065.74 358.841 1077.82 367.846C1089.76 376.743 1097.75 389.712 1097.75 410.267H1101.75ZM969.071 308.454C969.071 297.727 974.617 289.196 983.287 283.27C991.996 277.318 1003.79 274.06 1015.9 274.06V270.06C1003.14 270.06 990.519 273.482 981.03 279.968C971.502 286.48 965.071 296.147 965.071 308.454H969.071ZM1015.9 274.06C1027.49 274.06 1037.87 275.653 1046.77 279.911C1055.63 284.149 1063.16 291.088 1068.96 302.021L1072.49 300.146C1066.32 288.505 1058.18 280.932 1048.5 276.302C1038.86 271.692 1027.82 270.06 1015.9 270.06V274.06ZM1071.72 302.822L1095.21 289.462L1093.23 285.985L1069.74 299.345L1071.72 302.822ZM1095.97 286.757C1080.83 259.31 1052.46 243.34 1015.44 243.34V247.34C1051.22 247.34 1078.13 262.697 1092.47 288.689L1095.97 286.757ZM1015.44 243.34C971.911 243.34 936.508 270.12 936.508 308.915H940.508C940.508 273.078 973.287 247.34 1015.44 247.34V243.34ZM936.508 308.915C936.508 330.746 945.105 344.79 958.056 354.293C970.856 363.686 987.807 368.564 1004.39 372.479C1021.15 376.438 1037.43 379.4 1049.64 384.855C1055.7 387.562 1060.58 390.813 1063.93 394.953C1067.26 399.051 1069.19 404.135 1069.19 410.728H1073.19C1073.19 403.269 1070.97 397.283 1067.04 392.433C1063.14 387.626 1057.65 384.053 1051.27 381.203C1038.61 375.544 1021.71 372.459 1005.31 368.586C988.719 364.669 972.5 359.931 960.422 351.068C948.496 342.317 940.508 329.468 940.508 308.915H936.508ZM1069.19 410.728C1069.19 422.87 1063.38 431.947 1053.92 438.073C1044.38 444.249 1031.09 447.426 1016.36 447.426V451.426C1031.59 451.426 1045.71 448.153 1056.09 441.43C1066.55 434.657 1073.19 424.384 1073.19 410.728H1069.19ZM1016.36 447.426C1002.99 447.426 991.368 445.159 981.495 439.834C971.645 434.522 963.39 426.086 956.869 413.494L953.317 415.333C960.156 428.539 968.946 437.61 979.597 443.355C990.225 449.087 1002.56 451.426 1016.36 451.426V447.426ZM954.13 412.66L930.635 425.56L932.56 429.066L956.055 416.167L954.13 412.66ZM929.814 428.217C946.799 461.717 978.899 478.146 1017.29 478.146V474.146C980.12 474.146 949.565 458.327 933.381 426.408L929.814 428.217Z" fill="black"/>
<path fill-rule="evenodd" clip-rule="evenodd" d="M33.7252 176.969C31.0643 176.969 28.9073 179.131 28.9073 181.797V211.153C28.9073 213.819 31.0643 215.981 33.7252 215.981H110.811C118.794 215.981 125.265 222.466 125.265 230.466C125.265 238.465 118.794 244.95 110.811 244.95H33.7252C15.0993 244.95 0 229.819 0 211.153V181.797C0 163.132 15.0993 148 33.7252 148H257.275C275.901 148 291 163.132 291 181.797V211.153C291 229.819 275.901 244.95 257.275 244.95H193.872V440.203C193.872 458.868 178.772 474 160.146 474H132.395C113.769 474 98.6702 458.868 98.6702 440.203V282.394C98.6702 274.394 105.141 267.91 113.124 267.91C121.106 267.91 127.577 274.394 127.577 282.394V440.203C127.577 442.869 129.735 445.031 132.395 445.031H160.146C162.807 445.031 164.964 442.869 164.964 440.203V231.624C164.964 228.407 166.011 225.434 167.783 223.03C170.308 218.807 174.919 215.981 180.189 215.981H257.275C259.936 215.981 262.093 213.819 262.093 211.153V181.797C262.093 179.131 259.936 176.969 257.275 176.969H33.7252Z" fill="black"/>
<path d="M1453.78 378.019L1271.35 378.48V362.816H1453.78V378.019ZM1231.73 472L1319.72 193.742C1323.41 182.686 1328.94 174.547 1336.31 169.325C1343.68 163.797 1352.59 161.033 1363.03 161.033C1373.47 161.033 1382.38 163.797 1389.75 169.325C1397.12 174.547 1402.49 182.686 1405.87 193.742L1493.86 472H1477.28L1391.13 198.349C1386.52 183.607 1377.16 176.236 1363.03 176.236C1348.59 176.236 1339.07 183.607 1334.47 198.349L1248.78 472H1231.73ZM1647.37 476.146C1632.63 476.146 1618.5 473.229 1604.99 467.393C1591.78 461.251 1579.95 452.958 1569.51 442.516C1559.38 432.073 1551.24 419.942 1545.1 406.121C1539.26 391.993 1536.34 376.944 1536.34 360.973C1536.34 345.003 1539.26 330.107 1545.1 316.286C1551.24 302.158 1559.38 289.873 1569.51 279.431C1579.95 268.988 1591.78 260.85 1604.99 255.014C1618.5 248.872 1632.63 245.8 1647.37 245.8C1666.41 245.8 1684.07 250.1 1700.35 258.7C1716.93 266.992 1730.29 280.045 1740.43 297.858L1726.61 306.151C1717.7 290.487 1706.34 279.124 1692.52 272.06C1678.7 264.689 1663.65 261.003 1647.37 261.003C1630.48 261.003 1614.81 265.61 1600.38 274.824C1586.25 283.731 1574.73 295.709 1565.83 310.758C1557.23 325.807 1552.93 342.546 1552.93 360.973C1552.93 379.094 1557.23 395.832 1565.83 411.189C1574.73 426.238 1586.25 438.216 1600.38 447.123C1614.81 456.029 1630.48 460.483 1647.37 460.483C1663.65 460.483 1678.7 456.951 1692.52 449.887C1706.34 442.823 1717.7 431.459 1726.61 415.796L1740.43 424.088C1730.29 441.901 1716.93 455.108 1700.35 463.708C1684.07 472 1666.41 476.146 1647.37 476.146ZM1894.43 476.146C1873.23 476.146 1854.04 470.925 1836.84 460.483C1819.64 450.04 1805.97 436.066 1795.84 418.56C1785.7 401.053 1780.63 381.704 1780.63 360.513C1780.63 339.628 1785.7 320.432 1795.84 302.926C1805.97 285.42 1819.64 271.599 1836.84 261.464C1854.35 251.021 1874 245.8 1895.81 245.8C1917.31 245.8 1936.66 250.868 1953.85 261.003C1971.36 271.138 1985.18 284.959 1995.32 302.465C2005.76 319.665 2010.98 339.014 2010.98 360.513V472H1995.32V384.929L2004.99 363.737C2004.99 384.315 2000.08 403.203 1990.25 420.403C1980.73 437.295 1967.68 450.808 1951.09 460.943C1934.51 471.079 1915.62 476.146 1894.43 476.146ZM1895.81 460.483C1914.24 460.483 1930.82 456.029 1945.56 447.123C1960.61 437.909 1972.59 425.777 1981.5 410.728C1990.4 395.679 1994.86 378.94 1994.86 360.513C1994.86 342.392 1990.4 325.807 1981.5 310.758C1972.59 295.709 1960.61 283.731 1945.56 274.824C1930.82 265.61 1914.24 261.003 1895.81 261.003C1877.69 261.003 1861.1 265.61 1846.05 274.824C1831 283.731 1819.03 295.709 1810.12 310.758C1801.52 325.807 1797.22 342.392 1797.22 360.513C1797.22 378.94 1801.52 395.679 1810.12 410.728C1819.03 425.777 1831 437.909 1846.05 447.123C1861.1 456.029 1877.69 460.483 1895.81 460.483ZM2188.24 476.607C2166.43 476.607 2146.78 471.386 2129.27 460.943C2112.07 450.501 2098.4 436.527 2088.27 419.02C2078.13 401.514 2073.07 382.319 2073.07 361.434C2073.07 339.935 2078.13 320.432 2088.27 302.926C2098.4 285.42 2112.07 271.599 2129.27 261.464C2146.78 251.021 2166.28 245.8 2187.78 245.8C2208.66 245.8 2227.4 250.868 2243.98 261.003C2260.57 270.831 2273.77 284.191 2283.6 301.083C2293.74 317.668 2298.8 336.096 2298.8 356.366L2286.83 335.175L2287.29 148.134H2303.41V361.434C2303.41 382.933 2298.19 402.436 2287.75 419.942C2277.61 437.141 2263.79 450.962 2246.29 461.404C2229.09 471.539 2209.74 476.607 2188.24 476.607ZM2188.24 460.943C2206.67 460.943 2223.25 456.49 2237.99 447.583C2253.04 438.369 2265.02 426.238 2273.93 411.189C2282.83 396.139 2287.29 379.555 2287.29 361.434C2287.29 343.006 2282.83 326.268 2273.93 311.219C2265.02 295.862 2253.04 283.731 2237.99 274.824C2223.25 265.61 2206.67 261.003 2188.24 261.003C2170.12 261.003 2153.53 265.61 2138.48 274.824C2123.43 283.731 2111.46 295.862 2102.55 311.219C2093.95 326.268 2089.65 343.006 2089.65 361.434C2089.65 379.555 2093.95 396.139 2102.55 411.189C2111.46 426.238 2123.43 438.369 2138.48 447.583C2153.53 456.49 2170.12 460.943 2188.24 460.943ZM2477.91 476.146C2456.71 476.146 2437.52 471.079 2420.32 460.943C2403.43 450.501 2390.07 436.68 2380.24 419.481C2370.41 401.975 2365.5 382.472 2365.5 360.973C2365.5 339.474 2369.95 320.125 2378.86 302.926C2388.07 285.42 2400.66 271.445 2416.63 261.003C2432.91 250.561 2451.65 245.34 2472.84 245.34C2493.72 245.34 2512 249.947 2527.66 259.16C2543.63 268.374 2555.92 281.12 2564.52 297.398C2573.42 313.676 2577.88 332.41 2577.88 353.602V365.58H2376.09L2382.54 348.995C2380.39 369.266 2383.16 387.847 2390.84 404.739C2398.51 421.631 2409.88 435.145 2424.93 445.28C2440.28 455.415 2457.94 460.483 2477.91 460.483C2494.18 460.483 2509.23 456.951 2523.05 449.887C2537.18 442.823 2548.85 431.613 2558.07 416.256L2570.97 424.088C2560.52 441.594 2547.16 454.647 2530.89 463.247C2514.61 471.846 2496.95 476.146 2477.91 476.146ZM2382.54 351.759H2561.75C2561.75 333.332 2557.91 317.361 2550.23 303.847C2542.56 290.334 2532.11 279.892 2518.91 272.52C2505.7 264.842 2490.34 261.003 2472.84 261.003C2455.64 261.003 2440.44 264.996 2427.23 272.981C2414.02 280.966 2403.58 291.869 2395.9 305.69C2388.22 319.511 2383.77 334.867 2382.54 351.759ZM2912.1 245.34C2932.06 245.34 2949.11 250.254 2963.23 260.082C2977.67 269.603 2988.57 282.656 2995.94 299.241C3003.62 315.518 3007.46 333.946 3007.46 354.524V472H2991.34V356.366C2991.34 339.474 2988.27 323.811 2982.12 309.376C2976.29 294.941 2967.38 283.27 2955.4 274.363C2943.73 265.456 2929.14 261.003 2911.64 261.003C2895.05 261.003 2880.92 265.303 2869.25 273.903C2857.58 282.195 2848.68 293.405 2842.53 307.533C2836.39 321.354 2833.32 336.864 2833.32 354.063V472H2817.19V354.524C2817.19 337.324 2813.97 321.661 2807.52 307.533C2801.38 293.405 2792.32 282.195 2780.34 273.903C2768.36 265.303 2753.93 261.003 2737.03 261.003C2719.53 261.003 2704.94 265.456 2693.27 274.363C2681.91 283.27 2673.31 294.941 2667.47 309.376C2661.63 323.504 2658.72 339.014 2658.72 355.906V472H2642.59V354.984C2642.59 334.1 2646.28 315.518 2653.65 299.241C2661.33 282.656 2672.08 269.603 2685.9 260.082C2700.03 250.254 2716.76 245.34 2736.11 245.34C2753.93 245.34 2769.59 249.332 2783.1 257.318C2796.62 264.996 2807.21 275.438 2814.89 288.645C2822.88 301.851 2827.18 316.9 2827.79 333.792H2823.18C2824.41 316.9 2828.71 301.851 2836.08 288.645C2843.76 275.438 2853.9 264.996 2866.49 257.318C2879.39 249.332 2894.59 245.34 2912.1 245.34ZM3180.15 578.42C3161.11 578.42 3142.52 574.12 3124.4 565.52C3106.59 557.228 3092.62 544.329 3082.48 526.822L3096.76 518.53C3105.67 534.193 3117.65 545.557 3132.7 552.621C3148.05 559.685 3163.87 563.217 3180.15 563.217C3200.42 563.217 3217 558.303 3229.9 548.475C3243.11 538.954 3252.94 526.055 3259.39 509.777C3266.14 493.806 3269.37 476.3 3269.06 457.258L3268.6 386.311L3277.81 367.423C3277.81 387.386 3273.98 405.66 3266.3 422.245C3258.93 438.523 3248.18 451.576 3234.05 461.404C3219.92 471.232 3202.57 476.146 3181.99 476.146C3161.11 476.146 3143.45 471.693 3129.01 462.786C3114.58 453.879 3103.52 441.441 3095.84 425.47C3088.47 409.499 3084.78 390.918 3084.78 369.726V249.947H3101.37V366.502C3101.37 394.45 3108.28 417.178 3122.1 434.684C3135.92 451.883 3156.19 460.483 3182.91 460.483C3201.34 460.483 3216.85 456.029 3229.44 447.123C3242.34 437.909 3252.02 425.777 3258.47 410.728C3265.22 395.372 3268.6 378.633 3268.6 360.513V249.947H3285.19V457.258C3285.19 480.292 3281.35 501.024 3273.67 519.451C3265.99 537.879 3254.32 552.314 3238.66 562.756C3223.3 573.199 3203.8 578.42 3180.15 578.42Z" fill="black"/>
</svg>
